<?xml version="1.0" encoding="UTF-8"?>
<svg xmlns="http://www.w3.org/2000/svg" xmlns:xlink="http://www.w3.org/1999/xlink" viewBox="0 0 64 64" width="64px" height="64px">
<defs>
<linearGradient id="linear0" gradientUnits="userSpaceOnUse" x1="86.040314" y1="17.60581" x2="86.040314" y2="158.5625" gradientTransform="matrix(0.372093,0,0,0.372093,0,0)">
<stop offset="0" style="stop-color:rgb(43.921569%,87.450981%,100%);stop-opacity:1;"/>
<stop offset="1" style="stop-color:rgb(43.921569%,68.627453%,100%);stop-opacity:1;"/>
</linearGradient>
<linearGradient id="linear1" gradientUnits="userSpaceOnUse" x1="86.042999" y1="10.75" x2="86.042999" y2="161.25" gradientTransform="matrix(0.372093,0,0,0.372093,0,0)">
<stop offset="0" style="stop-color:rgb(0%,77.64706%,100%);stop-opacity:1;"/>
<stop offset="1" style="stop-color:rgb(0%,44.705883%,100%);stop-opacity:1;"/>
</linearGradient>
</defs>
<g id="surface7416845">
<path style=" stroke:none;fill-rule:nonzero;fill:url(#linear0);" d="M 50.011719 56.363281 C 50.011719 56.363281 49.722656 59 32 59 C 14.277344 59 14.019531 56.363281 14.019531 56.363281 C 14.019531 53.480469 14.378906 51.335938 14.980469 49.65625 C 14.980469 49.65625 19.472656 51.449219 25.347656 50.863281 C 31.789062 50.21875 34.035156 39.042969 34.035156 35.484375 C 34.035156 31.355469 27 32 27 32 C 27.109375 30.78125 27 29.484375 27 28 L 35 28 L 35.949219 24.757812 L 34.671875 23.046875 C 34.671875 23.046875 34.667969 23.046875 34.664062 23.046875 L 32.632812 20.320312 C 36.152344 19.023438 38.664062 15.640625 38.664062 11.667969 C 38.664062 9.773438 38.09375 8.015625 37.113281 6.550781 C 39.589844 8.203125 41.21875 11.019531 41.21875 14.21875 C 41.21875 17.179688 39.824219 19.8125 37.65625 21.5 C 39.273438 22.585938 41.382812 23.949219 43 25.035156 C 42.960938 25.601562 42.851562 26.351562 42.5625 27.1875 C 42.300781 27.945312 41.972656 28.546875 41.6875 28.992188 L 37.347656 28.710938 L 37.34375 28.710938 C 38.363281 47.613281 50.011719 39.605469 50.011719 56.363281 Z M 50.011719 56.363281 "/>
<path style=" stroke:none;fill-rule:nonzero;fill:url(#linear1);" d="M 44.882812 42.84375 C 42.054688 40.617188 39.132812 38.324219 38.472656 29.988281 L 41.6875 29.992188 L 41.691406 29.992188 C 42.007812 29.992188 42.304688 29.84375 42.492188 29.589844 C 43.257812 28.5625 44.003906 26.308594 44 25.035156 C 44 24.703125 43.835938 24.390625 43.558594 24.207031 C 42.738281 23.65625 41.730469 23.03125 40.71875 22.410156 C 40.152344 22.0625 39.582031 21.710938 39.050781 21.375 C 41.804688 18.597656 42.75 14.570312 41.445312 10.769531 C 40.023438 6.605469 36.402344 4.011719 32 4 C 27.597656 4.003906 23.980469 6.597656 22.5625 10.769531 C 21.265625 14.585938 22.21875 18.613281 24.984375 21.375 C 24.445312 21.710938 23.875 22.066406 23.300781 22.417969 C 22.300781 23.03125 21.269531 23.667969 20.441406 24.226562 C 20.164062 24.410156 20 24.722656 20 25.054688 C 20 26.324219 20.746094 28.582031 21.507812 29.609375 C 21.695312 29.863281 21.996094 30.011719 22.3125 30.011719 L 25.59375 30.007812 C 25.074219 37.636719 22.222656 40.097656 19.210938 42.695312 C 17.265625 44.375 15.253906 46.109375 14.074219 49.230469 C 14.058594 49.261719 14.046875 49.292969 14.035156 49.328125 C 13.347656 51.300781 13.03125 53.472656 13.019531 56.359375 C 13.019531 56.394531 13.019531 56.429688 13.023438 56.464844 C 13.253906 58.777344 19.8125 60 32 60 C 44.179688 60 50.75 58.78125 51.007812 56.476562 C 51.011719 56.4375 51.011719 56.402344 51.011719 56.367188 C 51.011719 47.660156 47.894531 45.210938 44.882812 42.84375 Z M 22.050781 25.5625 C 22.75 25.105469 23.550781 24.613281 24.351562 24.121094 C 25.363281 23.496094 26.375 22.875 27.191406 22.324219 C 27.460938 22.148438 27.625 21.851562 27.632812 21.527344 C 27.644531 21.207031 27.5 20.898438 27.246094 20.703125 C 24.382812 18.5 23.289062 14.851562 24.457031 11.414062 C 25.347656 8.796875 27.796875 6.003906 31.996094 6 C 36.207031 6.011719 38.660156 8.804688 39.554688 11.414062 C 40.726562 14.839844 39.640625 18.488281 36.789062 20.710938 C 36.535156 20.90625 36.394531 21.214844 36.40625 21.535156 C 36.414062 21.855469 36.582031 22.152344 36.847656 22.328125 C 37.660156 22.878906 38.664062 23.496094 39.667969 24.113281 C 40.460938 24.601562 41.253906 25.089844 41.949219 25.542969 C 41.824219 26.289062 41.476562 27.328125 41.132812 27.992188 L 37.785156 27.988281 L 37.597656 28 L 26 28 C 25.984375 28 25.976562 28.007812 25.960938 28.007812 L 22.867188 28.011719 C 22.519531 27.347656 22.175781 26.308594 22.050781 25.5625 Z M 32 58 C 18.523438 58 15.570312 56.460938 15.023438 56.046875 C 15.054688 53.589844 15.328125 51.726562 15.894531 50.0625 C 15.902344 50.042969 15.910156 50.023438 15.917969 50.007812 C 16.914062 47.320312 18.664062 45.808594 20.515625 44.210938 C 23.578125 41.570312 27.027344 38.570312 27.585938 30 L 36.476562 30 C 37.1875 39.3125 40.609375 42.027344 43.644531 44.414062 C 46.484375 46.644531 48.941406 48.578125 49.007812 56.042969 C 48.457031 56.457031 45.496094 58 32 58 Z M 32 58 "/>
</g>
</svg>
